<svg width="258" height="51" viewBox="0 0 258 51" fill="none" xmlns="http://www.w3.org/2000/svg">
<g clip-path="url(#clip0_144_1273)">
<path d="M70.7221 7.67574L70.4049 13.7116C72.9233 14.4194 74.8201 17.5652 74.8007 21.3335C74.7942 23.5355 74.1274 25.5213 73.0786 26.9303C72.9427 27.1138 72.6513 27.0155 72.6513 26.7861L72.6772 21.1107C72.6772 20.8223 72.4442 20.5864 72.1593 20.5798H71.7968C71.5119 20.5798 71.2789 20.8092 71.2724 21.1041L71.2465 27.6119C71.2465 27.8543 71.1041 28.0706 70.8775 28.1689C70.4826 28.3328 70.0488 28.0444 70.0488 27.6119L70.0747 21.15C70.0747 20.8354 69.8223 20.5733 69.5115 20.5733H69.2655C68.9418 20.5733 68.6764 20.8354 68.6764 21.1631L68.6505 27.6971C68.6505 28.0903 68.2621 28.3655 67.893 28.2279C67.6729 28.1427 67.524 27.9264 67.524 27.6905L67.5499 21.268C67.5499 20.8747 67.2392 20.5536 66.8508 20.5536C66.4623 20.5536 66.1451 20.8682 66.1451 21.2614L66.1192 26.9434C66.1192 27.1859 65.8149 27.2973 65.666 27.1072C64.5331 25.6851 63.8145 23.601 63.8275 21.2811C63.8404 17.7552 65.5236 14.7864 67.8089 13.8624L67.5888 7.71506C62.3838 8.55393 58.4023 13.1152 58.4023 18.6203C58.4023 29.0078 69.3108 37.4816 69.3108 37.4816C69.3108 37.4816 80.2193 29.0143 80.2193 18.6203C80.2193 13.0038 76.076 8.37043 70.7157 7.66919L70.7221 7.67574Z" fill="#88BF47"/>
<path d="M14.16 37.4754C9.08453 37.4754 4.58518 35.5486 1.4842 32.0359C0.674962 31.125 0.344794 29.9256 0.564906 28.746C0.810913 27.4811 1.64604 26.4194 2.85018 25.8296L3.09619 25.7117C4.51397 25.0104 6.14539 25.0891 7.46606 25.9279C8.70904 26.7078 9.44707 28.0316 9.44707 29.4669C9.44707 33.3466 11.1626 35.5814 14.1536 35.5814C17.5653 35.5814 20.3426 33.5301 20.3426 31.0201C20.3426 29.539 19.4168 28.202 17.8178 27.3435L6.64388 21.17C2.97319 19.1908 0.77207 15.855 0.77207 12.2309C0.77207 6.30638 7.05821 1.48291 14.7686 1.48291C19.5593 1.48291 23.7997 3.43589 26.7258 6.99451C27.5092 7.95134 27.8264 9.19653 27.5804 10.4352C27.3344 11.6869 26.5511 12.7486 25.4375 13.3384L25.2045 13.4629C23.9227 14.138 22.479 14.0986 21.2489 13.3319C19.9801 12.5454 19.242 11.1692 19.255 9.63562C19.2809 7.32219 18.7694 5.61169 17.7336 4.55656C16.9762 3.78323 15.9857 3.39657 14.7686 3.39657C11.2727 3.39657 8.42419 5.66412 8.42419 8.44941C8.42419 10.1665 9.48591 11.7393 11.2662 12.6699L23.1393 19.2236C26.7129 21.17 28.7651 24.106 28.7651 27.2845C28.7651 32.9141 22.2136 37.4885 14.1665 37.4885L14.16 37.4754Z" fill="#88BF47"/>
<path d="M56.7904 24.676C56.784 30.8692 54.1297 37.4884 46.6783 37.4884C44.5224 37.4884 42.3084 36.2956 40.7611 34.2967L40.7417 34.2771C40.7417 34.2771 40.6834 34.2247 40.6575 34.205C40.6316 34.1788 40.6058 34.1591 40.5799 34.146C40.5475 34.1329 40.5151 34.1264 40.4892 34.1198C40.4504 34.1132 40.418 34.1001 40.3727 34.1001C40.3662 34.1001 40.3597 34.0936 40.3468 34.0936C40.3274 34.0936 40.308 34.1001 40.2821 34.1067C40.2432 34.1067 40.2108 34.1132 40.1785 34.1264C40.1461 34.1395 40.1137 34.1526 40.0814 34.1788C40.0619 34.1853 40.0425 34.1919 40.0231 34.2115L40.0037 34.2312C40.0037 34.2312 39.9519 34.2902 39.9325 34.3164C39.913 34.3426 39.8936 34.3688 39.8742 34.395C39.8613 34.4278 39.8548 34.4606 39.8483 34.4868C39.8418 34.5327 39.8289 34.5589 39.8289 34.6048C39.8289 34.6113 39.8224 34.6179 39.8224 34.631V46.8404C39.8224 47.5678 40.2885 48.1839 40.9294 48.4001V50.399H29.1211V48.4001C29.7555 48.1773 30.2217 47.5809 30.2281 46.8666C30.2281 46.8535 30.2346 46.8469 30.2346 46.8404V17.5129C30.2346 16.7855 29.7685 16.176 29.1211 15.9532V13.8691L29.8009 13.7446L39.8224 11.962V14.7014C39.8224 14.7014 39.8289 14.7211 39.8289 14.7276C39.8289 14.7735 39.8418 14.7997 39.8483 14.8456C39.8548 14.8718 39.8613 14.9046 39.8742 14.9373C39.8872 14.9636 39.9066 14.9898 39.9325 15.016C39.9584 15.0422 39.9778 15.075 40.0037 15.1012L40.0231 15.1208C40.0231 15.1208 40.0749 15.1471 40.1008 15.1602C40.1267 15.1733 40.1396 15.1798 40.1591 15.1929C40.2238 15.2126 40.2885 15.2323 40.3468 15.2323C40.4245 15.2323 40.4957 15.206 40.5669 15.1798C40.5863 15.1733 40.5993 15.1602 40.6187 15.1471C40.6705 15.1208 40.7093 15.0881 40.7482 15.0488L40.7676 15.0291C42.3084 13.0368 44.516 11.8506 46.6847 11.8506C54.1362 11.8506 56.7904 18.4632 56.7969 24.676H56.7904ZM47.2026 24.676C47.2026 20.1278 45.7719 17.4146 43.383 17.4146C41.415 17.4146 39.8159 19.0334 39.8159 21.0191V28.3395C39.8159 30.3187 41.415 31.944 43.383 31.944C45.7719 31.944 47.2026 29.2242 47.2026 24.6826V24.676Z" fill="#88BF47"/>
<path d="M106.329 15.7303C106.406 17.4866 105.422 19.4462 103.059 19.8787C101.7 20.1212 100.334 19.6428 99.3951 18.6007C98.7218 17.834 97.7572 17.408 96.7538 17.408C94.7857 17.408 93.1931 19.0202 93.1867 21.0059V33.3661C93.1867 34.0935 93.6593 34.7096 94.3002 34.9258V36.9247H82.4854V34.9258C83.1263 34.703 83.5859 34.1001 83.5989 33.3792V17.4932C83.5859 16.7723 83.1263 16.1693 82.4854 15.9465V13.8625L82.8867 13.7904L86.0007 13.2333L93.1867 11.9554V15.9138C93.1867 15.9138 93.1931 15.9465 93.1996 15.9727C93.1996 16.0121 93.2061 16.0383 93.2255 16.071C93.232 16.1038 93.2449 16.1366 93.2579 16.1628C93.2708 16.1956 93.2903 16.2218 93.3161 16.248C93.342 16.2742 93.3679 16.3004 93.3938 16.3266C93.4068 16.3332 93.4133 16.3528 93.4262 16.3594C93.4456 16.3725 93.4586 16.3725 93.4845 16.3791C93.4974 16.3922 93.5168 16.3987 93.5363 16.4053C93.601 16.4249 93.6528 16.438 93.7175 16.438C93.8017 16.438 93.8794 16.4184 93.9441 16.3791C93.9635 16.3725 93.9765 16.3528 94.0024 16.3463C94.0542 16.3135 94.093 16.2677 94.1383 16.2218C94.1448 16.2087 94.1577 16.2021 94.1642 16.1956C95.9316 13.4234 98.7024 11.8374 101.771 11.8374C102.101 11.8374 102.438 11.8505 102.762 11.8898C105.137 12.1192 106.264 13.9804 106.335 15.7237L106.329 15.7303Z" fill="#88BF47"/>
<path d="M134.904 35.0307V36.9313H127.964C124.242 36.9313 122.585 34.1329 122.041 32.9336C122.034 32.9139 122.015 32.868 122.008 32.8484H122.002V32.8353L119.71 27.4941H119.704V27.4809C119.49 27.0287 119.043 26.7404 118.558 26.7404C118.383 26.7404 118.014 26.7469 117.723 26.996C117.716 27.0025 117.697 27.0091 117.69 27.0156L117.075 27.6251L117.069 27.6317C117.017 27.6841 116.985 27.7365 116.959 27.8021C116.926 27.8676 116.913 27.9397 116.913 28.0052V33.3661C116.913 34.1001 117.373 34.703 118.021 34.9259V36.9247H106.212V34.9324C106.86 34.703 107.326 34.0936 107.326 33.3661V6.25376C107.326 6.25376 107.319 6.24065 107.319 6.2341C107.313 5.5132 106.853 4.91682 106.212 4.68745V2.60339L116.913 0.696289V23.8502C116.913 23.8502 116.92 23.8961 116.926 23.9158C116.933 23.9682 116.933 24.0075 116.959 24.0534C116.972 24.0927 116.998 24.132 117.03 24.1648C117.043 24.191 117.049 24.2107 117.062 24.2238C117.062 24.2238 117.069 24.2238 117.069 24.2304C117.121 24.2828 117.172 24.3155 117.237 24.3483C117.302 24.3745 117.373 24.3876 117.444 24.3876C117.516 24.3876 117.58 24.3745 117.639 24.3483C117.677 24.3352 117.71 24.3024 117.742 24.2828C117.762 24.2697 117.794 24.2566 117.807 24.2435H117.813L125.75 16.4381L125.88 16.307C126.462 15.6582 126.437 15.1929 126.32 14.9177C126.281 14.8193 126.165 14.6555 125.938 14.531V12.4994H133.733V14.4065H131.849C131.117 14.4065 130.055 14.9111 129.311 15.5992L129.24 15.6648C129.24 15.6648 129.233 15.6779 129.227 15.6844L125.556 19.2889C125.556 19.2889 125.517 19.3479 125.498 19.3741C125.478 19.4134 125.446 19.4331 125.433 19.4659C125.433 19.4659 125.427 19.4986 125.42 19.5248C125.407 19.5773 125.394 19.6232 125.394 19.6756C125.394 19.7084 125.407 19.7411 125.414 19.7739C125.42 19.8067 125.42 19.8394 125.433 19.8722C125.446 19.9115 125.472 19.9574 125.511 19.9902C125.517 20.0033 125.524 20.0295 125.537 20.0426H125.543C125.569 20.0819 125.621 20.1081 125.673 20.1343C125.686 20.1409 125.699 20.154 125.711 20.1606C126.734 20.5865 127.537 21.3926 127.984 22.4478L132.781 33.6151L132.82 33.6872C133.202 34.4606 134.076 35.0373 134.859 35.0373H134.898L134.904 35.0307Z" fill="#88BF47"/>
<path d="M158.016 29.0344C157.9 31.0857 156.631 32.9534 154.436 34.31C152.19 35.6929 149.25 36.3613 146.175 36.1909C142.544 35.9747 139.164 34.5722 137.125 32.4226C136.367 31.6296 136.102 30.5155 136.419 29.4473C136.736 28.3528 137.578 27.5467 138.672 27.2846L138.873 27.2387C139.747 27.029 140.621 27.2125 141.339 27.7499C142.09 28.3135 142.55 29.1917 142.615 30.155C142.828 33.4712 144.725 34.2707 146.285 34.3559C147.315 34.4215 148.299 34.1921 149.069 33.7137C149.891 33.2025 150.377 32.4685 150.416 31.6493C150.48 30.6335 149.846 29.6701 148.713 29.0671L140.543 24.9777C137.384 23.3852 135.591 20.921 135.733 18.3782C135.966 14.2232 141.275 11.1364 147.561 11.4969C150.927 11.6869 154.061 12.8535 156.139 14.7016C157.026 15.488 157.382 16.648 157.084 17.8211C156.793 19.0073 155.873 19.9052 154.701 20.1804L154.455 20.2394C153.594 20.436 152.74 20.2525 152.034 19.7348C151.29 19.1908 150.811 18.3389 150.72 17.3755C150.48 14.9441 149.257 13.4302 147.457 13.3253C145.34 13.2074 143.625 14.3018 143.534 15.8288C143.489 16.6742 143.961 17.4803 144.894 18.0833L152.74 21.9827C156.152 23.5883 158.165 26.2884 158.016 29.0409V29.0344Z" fill="#88BF47"/>
<path d="M185.938 33.7397V35.6664H174.544V33.7397C175.165 33.5299 175.612 32.9336 175.612 32.2323V20.3047C175.612 18.3911 174.078 16.8248 172.174 16.8248C170.271 16.8248 168.73 18.3845 168.73 20.3047V32.2323C168.73 32.9401 169.171 33.5299 169.799 33.7397V35.6664H158.405V33.7462C158.469 33.72 158.534 33.6938 158.592 33.6676C158.689 33.7724 158.819 33.838 158.968 33.838C159.246 33.838 159.479 33.602 159.479 33.3202V6.06371C159.479 5.36247 159.033 4.77264 158.405 4.54982V2.53786L168.737 0.696289V15.3895C168.737 15.3895 168.743 15.4223 168.75 15.4419C168.75 15.4813 168.756 15.5075 168.769 15.5402C168.776 15.573 168.789 15.5992 168.808 15.632C168.821 15.6648 168.84 15.6844 168.86 15.7106C168.879 15.7369 168.905 15.7565 168.931 15.7893C168.944 15.7958 168.95 15.8155 168.97 15.8221C168.989 15.8352 169.002 15.8352 169.022 15.8417C169.035 15.8548 169.054 15.8614 169.067 15.8679C169.132 15.8876 169.184 15.9007 169.248 15.9007C169.326 15.9007 169.404 15.881 169.462 15.8483C169.481 15.8417 169.501 15.8221 169.514 15.8155C169.566 15.7827 169.604 15.7369 169.643 15.6975C169.65 15.6844 169.663 15.6779 169.669 15.6713C171.378 12.9974 174.052 11.4639 177.017 11.4639C181.568 11.4639 184.87 14.3999 184.87 18.4501V32.252C184.876 32.9467 185.323 33.5365 185.944 33.7462L185.938 33.7397Z" fill="#88BF47"/>
<path d="M211.756 33.7398V35.6665H205.703C204.149 35.6665 202.996 35.175 202.271 34.2116C202.258 34.1985 202.245 34.192 202.232 34.1723C202.207 34.1461 202.181 34.1264 202.155 34.1068C202.129 34.0871 202.109 34.074 202.071 34.0543C202.045 34.0412 202.019 34.0347 201.987 34.0216C201.948 34.015 201.922 34.0085 201.889 34.0085C201.857 34.0085 201.831 34.0085 201.792 34.015L201.689 34.0347C201.689 34.0347 201.663 34.0412 201.643 34.0478C197.532 35.9549 191.654 37.0625 188.456 34.9784C187.025 34.0478 186.3 32.5536 186.3 30.5285C186.3 24.9186 195.526 21.976 201.035 20.7177C201.048 20.7177 201.054 20.7046 201.08 20.6981C201.113 20.6915 201.138 20.6784 201.164 20.6522C201.197 20.6391 201.223 20.626 201.248 20.5997C201.274 20.5801 201.294 20.5604 201.313 20.5342C201.333 20.508 201.346 20.4818 201.371 20.449C201.384 20.4228 201.391 20.3966 201.404 20.3573C201.41 20.3245 201.417 20.2983 201.423 20.2655C201.423 20.2459 201.43 20.2327 201.43 20.2131V16.3071C201.43 14.3017 200.582 13.2925 198.911 13.2925C198.076 13.2925 197.371 13.5808 196.93 14.1117C196.464 14.6753 196.302 15.4486 196.471 16.412C196.503 16.5889 196.523 16.779 196.523 17.0018C196.523 18.6402 195.39 20.1475 193.771 20.6849C191.473 21.4386 189.706 20.1607 188.98 18.5681C188.242 16.9559 188.437 14.7539 190.515 13.4563C192.366 12.3094 195.979 11.4443 198.918 11.4443C204.738 11.4443 210.687 12.4208 210.687 19.6822V32.2128C210.687 32.914 211.134 33.5104 211.756 33.7201V33.7398ZM201.449 31.7212C201.436 31.6164 201.436 31.5115 201.436 31.4132V22.887C201.436 22.887 201.423 22.828 201.417 22.7952C201.41 22.7559 201.41 22.7231 201.397 22.6904C201.384 22.6707 201.371 22.6576 201.352 22.6379C201.333 22.5986 201.313 22.5593 201.281 22.5265C201.261 22.5069 201.229 22.4937 201.197 22.4675C201.171 22.4544 201.151 22.4282 201.119 22.4217C201.074 22.402 201.035 22.402 200.99 22.3954C200.97 22.3889 200.951 22.3823 200.925 22.3823H200.918C200.918 22.3823 200.86 22.3954 200.828 22.402C200.795 22.4085 200.756 22.4086 200.724 22.4217C199.034 23.1753 197.753 24.1453 196.879 25.2856C196.005 26.439 195.564 27.7563 195.564 29.244C195.564 30.7317 195.998 31.7278 196.866 32.3111C197.358 32.6453 197.96 32.8157 198.659 32.8157C199.403 32.8157 200.232 32.6322 201.132 32.2586C201.145 32.2586 201.151 32.2521 201.158 32.2455C201.19 32.2324 201.216 32.2128 201.248 32.1866C201.274 32.1734 201.294 32.1538 201.313 32.1276C201.339 32.1014 201.352 32.0751 201.365 32.0489C201.384 32.0227 201.404 31.9899 201.417 31.9572C201.43 31.931 201.43 31.8982 201.436 31.872C201.443 31.8327 201.443 31.7999 201.443 31.7606C201.443 31.754 201.449 31.7409 201.449 31.7344V31.7212Z" fill="#88BF47"/>
<path d="M235.8 15.2128C235.871 16.9037 234.919 18.8042 232.64 19.2171C231.326 19.453 230.005 18.9877 229.099 17.985C228.445 17.251 227.519 16.8381 226.548 16.8381C224.652 16.8381 223.111 18.3913 223.104 20.3115V32.2457C223.104 32.9469 223.557 33.5433 224.179 33.753V35.6798H212.772V33.753C213.393 33.5433 213.834 32.9535 213.847 32.2588V16.9233C213.834 16.2286 213.393 15.6454 212.772 15.4291V13.4171L213.16 13.345L216.164 12.8076L223.098 11.5756V15.3963C223.098 15.3963 223.104 15.4291 223.111 15.4488C223.111 15.4881 223.117 15.5143 223.13 15.5471C223.137 15.5798 223.15 15.606 223.163 15.6388C223.175 15.6716 223.195 15.6912 223.214 15.7175C223.234 15.7437 223.26 15.7633 223.292 15.7961C223.305 15.8026 223.311 15.8223 223.324 15.8289C223.344 15.842 223.357 15.842 223.376 15.8485C223.389 15.8616 223.409 15.8682 223.428 15.8747C223.486 15.8944 223.544 15.9075 223.603 15.9075C223.68 15.9075 223.758 15.8878 223.816 15.8551C223.836 15.8485 223.849 15.8289 223.875 15.8223C223.92 15.7895 223.959 15.7437 224.004 15.7043C224.011 15.6912 224.024 15.6847 224.03 15.6781C225.739 13.0043 228.413 11.4707 231.371 11.4707C231.689 11.4707 232.019 11.4838 232.33 11.5166C234.621 11.7328 235.709 13.5351 235.78 15.2194L235.8 15.2128Z" fill="#88BF47"/>
<path d="M255.383 28.9426L257.313 29.9912C254.872 34.3166 250.178 36.7152 245.213 36.1188C239.665 35.4504 235.191 30.8825 234.57 25.2595C234.162 21.6091 235.224 18.1488 237.561 15.5143C239.865 12.8994 243.122 11.4641 246.715 11.4641C252.664 11.4641 257.5 14.7868 257.5 18.8697C257.5 22.9526 252.664 26.2753 246.715 26.2753C246.029 26.2753 245.368 26.236 244.747 26.1508C244.734 26.1442 244.727 26.1508 244.708 26.1508C244.676 26.1508 244.643 26.1508 244.604 26.1573C244.565 26.1639 244.533 26.1639 244.507 26.177C244.494 26.1835 244.481 26.177 244.475 26.1835C244.455 26.1901 244.442 26.2098 244.417 26.2163C244.391 26.236 244.365 26.2491 244.339 26.2753C244.313 26.295 244.294 26.3212 244.268 26.3474C244.248 26.3736 244.235 26.3998 244.222 26.426C244.203 26.4588 244.196 26.4981 244.19 26.5309C244.184 26.5506 244.171 26.5637 244.171 26.5833C244.164 26.5964 244.171 26.603 244.171 26.6161C244.171 26.6554 244.171 26.6882 244.177 26.7209C244.184 26.7537 244.184 26.793 244.196 26.8258C244.203 26.8324 244.196 26.8455 244.203 26.852C246.009 31.1643 250.211 30.8694 250.683 30.8235C252.444 30.817 254.101 30.1485 255.377 28.9361L255.383 28.9426ZM244.151 25.4233H244.209C245.757 25.2529 250.813 24.2764 250.832 18.9615V18.9352C250.832 15.3963 249.725 13.345 247.777 13.3057C247.77 13.3057 247.77 13.2991 247.764 13.2991C247.718 13.2991 246.663 13.227 245.608 14.2232C244.138 15.5994 243.387 18.2471 243.387 22.081C243.387 23.1165 243.478 24.0864 243.646 24.958H243.653V25.0104C243.653 25.0104 243.672 25.0563 243.685 25.0825C243.692 25.1088 243.698 25.1284 243.711 25.1612C243.73 25.1874 243.756 25.2136 243.782 25.2398C243.795 25.2595 243.808 25.2791 243.827 25.2988C243.853 25.325 243.892 25.3381 243.925 25.3578C243.944 25.3643 243.957 25.3775 243.976 25.384C244.035 25.4037 244.093 25.4168 244.151 25.4168V25.4233Z" fill="#88BF47"/>
</g>
<defs>
<clipPath id="clip0_144_1273">
<rect width="257" height="49.6961" fill="white" transform="translate(0.5 0.696289)"/>
</clipPath>
</defs>
</svg>
