<svg width="432" height="45" viewBox="0 0 432 45" fill="none" xmlns="http://www.w3.org/2000/svg">
<g clip-path="url(#clip0_1_1098)">
<path d="M18.844 1.38281C23.4173 1.38281 28.6682 2.49797 31.7595 4.13914L27.9695 15.1224C26.0428 14.2808 22.888 13.6706 20.4108 13.7127C16.4514 13.8179 14.7787 14.6595 15.1599 16.4059C16.0068 20.2774 33.2204 13.6075 33.2204 28.2939C33.2204 35.3635 27.8636 41.1918 15.6257 41.1918C11.1158 41.1918 3.32416 40.1818 0 38.3303L3.95935 26.0425C5.42028 26.9893 10.5653 30.2506 14.7364 30.5242C18.357 30.7977 19.1827 28.3991 18.7381 27.4943C16.9384 24.0226 1.0163 29.5142 1.0163 15.6063C1.0163 8.28416 7.55875 1.38281 18.844 1.38281Z" fill="#88BF47"/>
<path d="M38.0478 3.80273C42.7271 2.39301 51.3021 1.10952 56.8283 1.17265C67.4995 1.27785 74.0843 6.05408 74.0843 13.7971C74.0843 23.3916 66.589 28.757 52.8054 27.2L53.5465 41.171L39.4453 40.6029L38.0267 3.82377L38.0478 3.80273ZM55.7696 20.1093C59.2632 20.1093 61.2958 18.6575 61.2958 15.7959C61.2958 12.9344 59.4326 11.3143 56.1084 11.3143C53.8429 11.3143 52.4455 11.8192 51.4927 12.4294L51.7256 20.0041C53.4194 20.1093 54.097 20.1093 55.7908 20.1093H55.7696Z" fill="#88BF47"/>
<path d="M96.9723 1.21436C108.66 1.21436 117.065 9.12566 117.065 21.182C117.065 33.2383 108.66 41.1496 96.9723 41.1496C85.2848 41.1496 76.9426 33.1962 76.9426 21.182C76.9426 9.16774 85.2424 1.21436 96.9723 1.21436ZM96.7393 26.8419C101.143 26.8419 104.298 23.7489 104.298 19.3304C104.298 14.9118 101.143 11.882 96.7393 11.882C92.3354 11.882 89.1806 14.8487 89.1806 19.3304C89.1806 23.8121 92.293 26.8419 96.7393 26.8419Z" fill="#88BF47"/>
<path d="M121.872 3.80273C126.551 2.39301 135.126 1.10952 140.652 1.17265C151.323 1.27785 157.908 6.05408 157.908 13.7971C157.908 19.457 154.584 23.7283 149.778 25.1801V25.4115L160.047 33.3228L149.502 44.264L135.062 27.7891L134.724 27.8522L137.37 41.192L123.269 40.6239L121.851 3.84481L121.872 3.80273ZM139.593 20.1093C143.087 20.1093 145.12 18.6575 145.12 15.7959C145.12 12.9344 143.256 11.3143 139.932 11.3143C137.667 11.3143 136.269 11.8192 135.317 12.4294L135.549 20.0041C137.243 20.1093 137.921 20.1093 139.615 20.1093H139.593Z" fill="#88BF47"/>
<path d="M164.091 2.39277L178.086 1.82467L178.636 18.1312H179.378L187 0.688477L199.915 6.91652L190.091 21.2242L203.917 34.564L190.832 45.0002L177.303 28.0624L176.731 28.2307L177.176 40.7289L163.18 40.1608L164.091 2.37173V2.39277Z" fill="#88BF47"/>
<path d="M221.681 1.38286C226.254 1.38286 231.505 2.49801 234.597 4.13919L230.807 15.1224C228.88 14.2808 225.725 13.6706 223.248 13.7127C219.31 13.8179 217.616 14.6595 217.997 16.4059C218.844 20.2774 236.058 13.6075 236.058 28.2939C236.058 35.3636 230.701 41.1918 218.463 41.1918C213.953 41.1918 206.161 40.1819 202.837 38.3303L206.797 26.0425C208.257 26.9894 213.403 30.2507 217.574 30.5242C221.194 30.7977 222.02 28.3991 221.575 27.4944C219.776 24.0226 203.853 29.5143 203.853 15.6064C203.853 8.26316 210.396 1.36182 221.681 1.36182V1.38286Z" fill="#88BF47"/>
<path d="M242.282 2.79227L256.511 1.95064L256.235 17.0789L264.302 16.8054L264.535 1.50879L278.192 1.95064L279.145 40.5814L263.964 41.1495L264.196 26.2316L256.066 25.7897L255.791 40.918L241.181 40.3499L242.304 2.79227H242.282Z" fill="#88BF47"/>
<path d="M295.787 1.31982L314.355 1.88792L324.18 39.6139L308.66 41.1288L307.707 34.9008H300.042L298.518 41.2971L283.104 40.182L295.787 1.31982ZM307.876 26.9474L304.722 11.9875H303.705L299.365 26.9474H307.876Z" fill="#88BF47"/>
<path d="M327.864 3.80273C332.543 2.39301 341.118 1.10952 346.644 1.17265C357.315 1.27785 363.9 6.05408 363.9 13.7971C363.9 19.457 360.576 23.7283 355.77 25.1801V25.4115L366.039 33.3228L355.494 44.264L341.054 27.7891L340.716 27.8522L343.362 41.192L329.261 40.6239L327.842 3.84481L327.864 3.80273ZM345.585 20.1093C349.079 20.1093 351.112 18.6575 351.112 15.7959C351.112 12.9344 349.248 11.3143 345.924 11.3143C343.659 11.3143 342.261 11.8192 341.308 12.4294L341.541 20.0041C343.235 20.1093 343.913 20.1093 345.607 20.1093H345.585Z" fill="#88BF47"/>
<path d="M370.315 2.39286L398.857 1.10938L399.301 12.4293L383.781 12.0926L383.612 16.5112L395.638 15.7747L396.252 24.3593L383.379 24.5277L383.21 29.4091L398.963 27.8942L399.979 41.2971L369.172 40.6238L370.294 2.39286H370.315Z" fill="#88BF47"/>
</g>
<defs>
<clipPath id="clip0_1_1098">
<rect width="400" height="44.2907" fill="white" transform="translate(0 0.709473)"/>
</clipPath>
</defs>
</svg>
