<?xml version="1.0" encoding="UTF-8"?>
<svg id="Layer_1" xmlns="http://www.w3.org/2000/svg" xmlns:xlink="http://www.w3.org/1999/xlink" version="1.1" viewBox="0 0 16 16">
  <!-- Generator: Adobe Illustrator 29.5.1, SVG Export Plug-In . SVG Version: 2.1.0 Build 141)  -->
  <defs>
    <style>
      .st0 {
        fill: none;
      }

      .st1 {
        fill: #fff;
      }

      .st2 {
        fill: #17362e;
      }

      .st3 {
        fill: #eeecdf;
      }

      .st4 {
        clip-path: url(#clippath);
      }

      .st5 {
        fill: #84b749;
      }
    </style>
    <clipPath id="clippath">
      <rect class="st0" x="2.5" y="2.6" width="12.2" height="10.9"/>
    </clipPath>
  </defs>
  <rect class="st3" width="16" height="16" rx="2" ry="2"/>
  <g class="st4">
    <g>
      <path class="st2" d="M2.5,7.9c0,0,0,.2,0,.2,0,2.8,2.3,5.1,5.1,5.1s5.1-2.3,5.1-5.1,0-.2,0-.2H2.5Z"/>
      <path class="st1" d="M7.7,9.1v.3c.1,0,.2.2.2.4,0,.1,0,.2,0,.3,0,0,0,0,0,0v-.3s0,0,0,0h0s0,0,0,0v.3s0,0,0,0c0,0,0,0,0,0v-.3s0,0,0,0h0s0,0,0,0v.3s0,0,0,0c0,0,0,0,0,0v-.3s0,0,0,0,0,0,0,0v.3s0,0,0,0c0,0,0-.2,0-.3,0-.2,0-.3.2-.3v-.3c-.3,0-.4.2-.4.5,0,.5.5.9.5.9,0,0,.5-.4.5-.9s-.2-.5-.4-.5h0Z"/>
      <path class="st1" d="M5,10.4c-.2,0-.4,0-.6-.3,0,0,0,0,0-.2,0,0,0-.1.1-.1h0c0,0,.1,0,.2,0,0,0,0,0,0,.2,0,.2,0,.3.2.3s.3,0,.3-.2,0-.1-.1-.2l-.5-.3c-.2,0-.3-.2-.3-.4,0-.3.3-.5.7-.5s.4,0,.6.3c0,0,0,.1,0,.2,0,0,0,.1-.1.1h0c0,0-.1,0-.2,0,0,0,0,0,0-.2,0-.1,0-.2,0-.2,0,0,0,0-.1,0-.2,0-.3.1-.3.2s0,.2.1.2l.6.3c.2,0,.3.2.3.4,0,.3-.3.5-.7.5h0Z"/>
      <path class="st1" d="M7,9.9c0,.3-.1.6-.5.6s-.2,0-.3-.1h0s0,0,0,0c0,0,0,0,0,0,0,0,0,0,0,0,0,0,0,0,0,0h0s0,0,0,0c0,0,0,0,0,0,0,0,0,0,0,0h0s0,0,0,0,0,0,0,0c0,0,0,0,0,0,0,0,0,0,0,0h0v1s0,0,0,0h0c0,0-.6,0-.6,0h0c0-.1,0-.1,0-.2h0v-1.8s0,0,0,0h0c0,0,0-.1,0-.1h.5c0,0,0,0,0,0h0s0,0,0,0c0,0,0,0,0,0,0,0,0,0,0,0,0,0,0,0,0,0h0s0,0,0,0c0,0,0,0,0,0,0,0,0,0,0,0s0,0,0,0c0,0,0,0,0,0,0,0,0,0,0,0h0c0,0,.2-.1.3-.1.3,0,.5.3.5.6h0ZM6.6,9.9c0-.2,0-.3-.2-.3s-.2,0-.2.2v.3c0,0,0,.2.2.2s.2-.1.2-.3Z"/>
      <path class="st1" d="M9.3,9.4c0,0,0,.2-.2.2,0,0-.1,0-.2,0,0,0,0,0-.1,0,0,0-.2,0-.2.2v.6s0,0,0,0h0c0,0-.6,0-.6,0h0c0-.1,0-.1,0-.2v-.7s0,0,0,0h0c0,0,0,0,0,0h.1s.3,0,.3,0v.2h0s0,0,0,0c0,0,0,0,0,0,0,0,0,0,0,0s0,0,0,0c0,0,0,0,0,0s0,0,0,0c0,0,0,0,0,0,0,0,0,0,0,0s0,0,0,0c0,0,0,0,0,0,0,0,0,0,0,0h0c0-.1.2-.2.4-.2s0,0,0,0c.1,0,.2,0,.2.2h0Z"/>
      <path class="st1" d="M10.7,10.3h0c0,0-.3,0-.3,0-.2,0-.3-.1-.3-.2,0,0,0,0,0,0v-.2c-.1,0-.1,0-.2,0s0,0,0,0c0,0,0,0,0,0h0s0,0,0,0c0,0,0,0,0,0v.2s0,0,0,0h0c0,0-.6,0-.6,0h0c0-.1,0-.1,0-.2v-1.2h0s0,0,0,0h0c0,0,.5-.2.5-.2v1.1h0s0,0,0,0c0,0,0,0,0,0,0,0,0,0,0,0,0,0,0,0,0,0,0,0,0,0,0,0s0,0,0,0c0,0,0,0,0,0,0,0,0,0,0,0l.4-.4h0s0,0,0,0c0,0,0,0,0,0h0c0,0,.4,0,.4,0h0c0,0,0,0,0,0,0,0,0,0-.1,0h0s-.2.2-.2.2c0,0,0,0,0,0,0,0,0,0,0,0h0s0,0,0,0,0,0,0,0,0,0,0,0c0,0,0,0,0,0,0,0,0,0,0,0,0,0,0,0,0,0,0,0,0,0,0,0,0,0,0,0,.1.1l.2.5h0s0,0,0,0h0Z"/>
      <path class="st1" d="M7,11.3c0,0,0,.1-.1.2,0,0-.2,0-.3,0-.1,0-.2,0-.3-.1,0,0,0,0,0,0,0,0,0,0,0,0h0s0,0,0,0c0,0,0,0,0,0,0,0,0,.1.1.1,0,0,0,0,0,0,0,0,0,0,0,0,0,0,0,0,0,0h-.2c0-.2-.2-.2-.1-.3,0-.1.2-.2.4-.2.1,0,.2,0,.3,0,0,0,0,0,0,0,0,0,0,0,0,0h0s0,0,0,0c0,0,0,0,0,0,0,0,0-.1,0-.1,0,0-.1,0-.1,0,0,0,0,0,0,0h.2c.1.2.2.2.2.3h0Z"/>
      <path class="st1" d="M7.9,11.5h0c0,0-.3,0-.3,0h0c0,0,0,0,0-.1v-.4c0,0,0-.1-.1-.1s-.1,0-.1.1v.4s0,0,0,0h0c0,0-.3,0-.3,0h0c0,0,0,0,0,0,0,0,0,0,0,0,0,0,0,0,0,0v-.8s0,0,0,0h0c0,0,.3-.1.3-.1v.4h0s0,0,0,0c0,0,0,0,0,0h0s0,0,0,0h0s0,0,0,0c0,0,0,0,0,0s0,0,0,0h0s0,0,0,0h0c0,0,.1-.1.2-.1.1,0,.2,0,.2.2v.4s0,0,0,0h0Z"/>
      <path class="st1" d="M8.7,11.5h0c0,0-.2,0-.2,0,0,0,0,0-.1,0,0,0,0,0,0,0,0,0,0,0,0,0,0,0,0,0,0,0,0,0,0,0,0,0h0s0,0,0,0c-.1,0-.3,0-.4,0,0,0,0,0,0-.1,0-.2.3-.3.4-.3h0s0,0,0,0c0,0,0,0,0,0,0,0,0,0,0,0,0,0,0,0,0,0,0,0,0,0,0,0h0c0-.2,0-.2,0-.2s0,0,0,0c0,0,0,0,0,0,0,0,0,0,0,0,0,0,0,0,0,.1,0,0-.1,0-.1,0,0,0,0-.1,0-.2,0,0,.2,0,.3,0,.2,0,.4,0,.4.2v.4s0,0,0,0h0ZM8.3,11.4h0v-.3h0s0,0,0,0c0,0,0,0,0,0,0,0,0,0,0,0,0,0,0,0,0,0,0,0,0,0,0,0h0c0,0,0,0-.1,0,0,0,0,0,0,.1s0,0,0,0c0,0,0,0,0,0s0,0,0,0h0s0,0,0,0c0,0,0,0,0,0s0,0,0,0,0,0,0,0h0Z"/>
      <path class="st1" d="M9.4,10.9c0,0,0,.1,0,.1,0,0,0,0-.1,0,0,0,0,0,0,0,0,0-.1,0-.1.1v.4s0,0,0,0h0c0,0-.3,0-.3,0h0c0,0,0,0,0-.1v-.5s0,0,0,0h0c0,0,0,0,0,0h0s.2,0,.2,0h0c0,.1,0,.1,0,.1,0,0,0,0,0,0h0s0,0,0,0h0s0,0,0,0c0,0,0,0,0,0s0,0,0,0c0,0,0,0,0,0,0,0,0,0,0,0h0c0,0,.1-.1.2-.1s0,0,0,0c0,0,.1,0,.1.1h0Z"/>
      <path class="st1" d="M10,11.3h0c0,.2-.2.2-.4.2-.2,0-.3-.2-.3-.3,0-.1,0-.2,0-.3,0,0,.2-.1.3-.1.2,0,.3,0,.3.2s-.1.2-.3.2,0,0,0,0h0s0,0,0,0,0,0,0,0c0,0,0,0,0,0,0,0,0,0,0,0,0,0,0,0,0,0h0c0,.1.2.1.2.1,0,0,.1,0,.1,0h0ZM9.6,11.2h0s.2,0,.2-.2,0-.2,0-.2c0,0,0,0,0,0,0,0,0,.1,0,.2s0,0,0,0h0s0,0,0,0c0,0,0,0,0,0,0,0,0,0,0,0,0,0,0,0,0,0,0,0,0,0,0,0,0,0,0,0,0,0,0,0,0,0,0,0h0Z"/>
      <path class="st2" d="M8.8,12.7h-2.5c-.1,0-.2,0-.2.2v.3c0,.1,0,.2.2.2h2.5c.1,0,.2,0,.2-.2v-.3c0-.1,0-.2-.2-.2Z"/>
      <path class="st5" d="M14.1,4.2c.2-.1.3-.2.4-.4.2-.5-.3-1-.8-.8-.2,0-.3.3-.4.4,0-.8-1.1-.8-1.1,0v.8c.1,0,.2.1.2.2.3.2.6.4.7.7,0,0,0,0,.2.1.4,0,1,.3,1.2,0,.3-.4,0-.9-.5-.9Z"/>
      <path class="st5" d="M12,4.4c-.8-.3-1.4-.2-1.9.5-.1.1-.2.3-.3.4,0,0,0,.1,0,.1.3.2.6.3.8.5,0,0,0,.1,0,.2,0,0-.1.1-.2,0,0,0-.2-.1-.3-.2-.2-.1-.4-.2-.6-.3,0,0,0,0-.1,0,0,0-.1.2-.2.3,0,0,0,.1,0,.1.2,0,.3.2.5.3,0,0,0,.1,0,.2,0,0-.1.1-.2,0,0,0-.2-.1-.3-.2,0,0-.2,0-.2-.1,0,0-.1,0-.1,0v.2c-.2.1-.3.3-.4.4,0,.2-.2.3-.3.5h4.1s0,0,0,0l.2-.2s.1-.1.1-.1c.9-.9.1-2.3-.9-2.8h0Z"/>
      <path class="st5" d="M6.9,5c-.2,0-.5.1-.7.2,0-.7.5-1.2,1-1.6.1,0,.1-.2,0-.4,0-.1-.3-.2-.4,0-.3.2-.5.4-.7.6-.2-.7-.9-1.2-1.6-1.2h-.5c0,0-.1,0-.1.1,0,.5,0,1,.3,1.4.3.5.9.7,1.4.8v.3c-.7-.2-1.4-.4-2.1,0-.9.5-1.1,1.4-1,2.3h5.5l1-1.6c-.4-.7-1.2-1.1-2.1-1h0Z"/>
    </g>
  </g>
</svg>